HIERARCHY
ROOT Base
{
	OFFSET 0.0 0.0 0.0
	CHANNELS 0
	JOINT Left
	{
		OFFSET 0.94 -0.28125 0.0
		CHANNELS 6 Xposition Yposition Zposition Xrotation Yrotation Zrotation
		End Site
		{
			OFFSET 0.0 0.0 0.0
		}
	}
	JOINT Right
	{
		OFFSET -0.94 -0.28125 0.0
		CHANNELS 6 Xposition Yposition Zposition Xrotation Yrotation Zrotation
		End Site
		{
			OFFSET 0.0 0.0 0.0
		}
	}
}
MOTION
Frames: 21
Frame Time: 0.041667
0.0 0.0 0.0 0.0 0.0 0.000 0.0 0.0 0.0 0.0 0.0 0.00
0.0 0.0 0.0 0.0 0.0 -9.00 0.0 0.0 0.0 0.0 0.0 9.00
0.0 0.0 0.0 0.0 0.0 -18.0 0.0 0.0 0.0 0.0 0.0 18.0
0.0 0.0 0.0 0.0 0.0 -27.0 0.0 0.0 0.0 0.0 0.0 27.0
0.0 0.0 0.0 0.0 0.0 -36.0 0.0 0.0 0.0 0.0 0.0 36.0
0.0 0.0 0.0 0.0 0.0 -45.0 0.0 0.0 0.0 0.0 0.0 45.0
0.0 0.0 0.0 0.0 0.0 -54.0 0.0 0.0 0.0 0.0 0.0 54.0
0.0 0.0 0.0 0.0 0.0 -63.0 0.0 0.0 0.0 0.0 0.0 63.0
0.0 0.0 0.0 0.0 0.0 -72.0 0.0 0.0 0.0 0.0 0.0 72.0
0.0 0.0 0.0 0.0 0.0 -81.0 0.0 0.0 0.0 0.0 0.0 81.0
0.0 0.0 0.0 0.0 0.0 -90.0 0.0 0.0 0.0 0.0 0.0 90.0
0.0 0.0 0.0 0.0 0.0 -81.0 0.0 0.0 0.0 0.0 0.0 81.0
0.0 0.0 0.0 0.0 0.0 -72.0 0.0 0.0 0.0 0.0 0.0 72.0
0.0 0.0 0.0 0.0 0.0 -63.0 0.0 0.0 0.0 0.0 0.0 63.0
0.0 0.0 0.0 0.0 0.0 -54.0 0.0 0.0 0.0 0.0 0.0 54.0
0.0 0.0 0.0 0.0 0.0 -45.0 0.0 0.0 0.0 0.0 0.0 45.0
0.0 0.0 0.0 0.0 0.0 -36.0 0.0 0.0 0.0 0.0 0.0 36.0
0.0 0.0 0.0 0.0 0.0 -27.0 0.0 0.0 0.0 0.0 0.0 27.0
0.0 0.0 0.0 0.0 0.0 -18.0 0.0 0.0 0.0 0.0 0.0 18.0
0.0 0.0 0.0 0.0 0.0 -9.00 0.0 0.0 0.0 0.0 0.0 9.00
0.0 0.0 0.0 0.0 0.0 0.000 0.0 0.0 0.0 0.0 0.0 0.00
